<?xml version="1.0" encoding="iso-8859-1"?>
<!-- Generator: Adobe Illustrator 14.0.0, SVG Export Plug-In . SVG Version: 6.00 Build 43363)  -->
<!DOCTYPE svg PUBLIC "-//W3C//DTD SVG 1.1//EN" "http://www.w3.org/Graphics/SVG/1.1/DTD/svg11.dtd">
<svg version="1.1" id="Mark_4" xmlns="http://www.w3.org/2000/svg" xmlns:xlink="http://www.w3.org/1999/xlink" x="0px" y="0px"
	 width="1000px" height="1000px" viewBox="0 0 1000 1000" style="enable-background:new 0 0 1000 1000;" xml:space="preserve">
<rect x="240.801" y="92.894" style="fill:#C70000;" width="518.398" height="690.387"/>
<g>
	<path style="fill:#FFFFFF;" d="M662.566,152.536v84c-66.272,0-120.186,53.912-120.186,120.178h-84
		C458.381,244.13,549.975,152.536,662.566,152.536L662.566,152.536z"/>
	<g>
		<rect x="440.382" y="356.714" style="fill:#FFFFFF;" width="119.997" height="25.2"/>
		<rect x="440.382" y="391.366" style="fill:#FFFFFF;" width="119.997" height="25.201"/>
	</g>
	<g>
		<rect x="662.566" y="134.539" style="fill:#FFFFFF;" width="25.198" height="119.993"/>
		<rect x="697.364" y="134.539" style="fill:#FFFFFF;" width="25.198" height="119.993"/>
	</g>
</g>
<g>
	<rect x="277.438" y="445.811" style="fill:#F8D4D4;" width="24.927" height="119.469"/>
	<rect x="311.715" y="445.811" style="fill:#F8D4D4;" width="24.928" height="119.469"/>
</g>
<polygon style="fill:#F8D4D4;" points="240.8,463.997 277.438,463.994 277.438,547.096 240.8,547.096 240.8,463.997 "/>
<path style="fill:#C70000;" d="M274.022,861.339c-6.554,0-12.543,2.44-17.967,7.322v-40.167H240.8V929.21h15.255v-31.937
	c0-8.136,1.062-13.876,3.187-17.222c2.169-3.298,5.921-4.949,11.254-4.949c4.158,0,7.176,1.187,9.051,3.559
	c1.876,2.374,2.814,6.204,2.814,11.494v39.055h15.255V888.73c0-9.22-1.899-15.933-5.696-20.138
	C287.446,863.757,281.48,861.339,274.022,861.339z"/>
<path style="fill:#C70000;" d="M360.638,870.832c-6.102-6.329-12.996-9.493-20.679-9.493c-8.904,0-16.318,3.3-22.239,9.898
	c-5.922,6.601-8.882,14.849-8.882,24.748c0,10.081,2.96,18.487,8.882,25.223c5.967,6.601,13.516,9.899,22.646,9.899
	c7.231,0,13.989-2.939,20.272-8.815v6.918h15.323v-66.04h-15.323V870.832z M356.366,911.648c-3.481,3.888-8.045,5.829-13.696,5.829
	c-5.289,0-9.673-2.009-13.153-6.034c-3.39-3.976-5.084-9.128-5.084-15.458c0-5.92,1.739-10.893,5.221-14.915
	c3.525-3.978,7.909-5.968,13.153-5.968c5.561,0,10.079,1.966,13.56,5.899c3.48,4.023,5.221,9.13,5.221,15.322
	C361.587,902.519,359.846,907.625,356.366,911.648z"/>
<rect x="391.121" y="863.17" style="fill:#C70000;" width="15.255" height="66.04"/>
<polygon style="fill:#C70000;" points="478.828,863.17 458.352,863.17 436.859,884.527 436.859,828.494 421.604,828.494 
	421.604,929.21 436.859,929.21 436.859,903.782 439.299,901.342 461.131,929.21 480.929,929.21 450.146,890.901 "/>
<path style="fill:#C70000;" d="M531.923,870.832c-6.102-6.329-12.995-9.493-20.68-9.493c-8.9,0-16.309,3.3-22.229,9.898
	c-5.921,6.601-8.882,14.849-8.882,24.748c0,10.081,2.96,18.487,8.882,25.223c5.965,6.601,13.51,9.899,22.635,9.899
	c7.231,0,13.989-2.939,20.273-8.815v6.918h15.322v-66.04h-15.322V870.832z M527.65,911.648c-3.481,3.888-8.046,5.829-13.695,5.829
	c-5.289,0-9.67-2.009-13.147-6.034c-3.389-3.976-5.083-9.128-5.083-15.458c0-5.92,1.738-10.893,5.219-14.915
	c3.521-3.978,7.903-5.968,13.146-5.968c5.562,0,10.079,1.966,13.561,5.899c3.481,4.023,5.222,9.13,5.222,15.322
	C532.872,902.519,531.132,907.625,527.65,911.648z"/>
<path style="fill:#C70000;" d="M594.874,861.339c-6.69,0-12.703,2.645-18.034,7.934v-6.103h-15.325v66.04h15.325v-31.829
	c0-8.217,1.037-13.97,3.117-17.269c2.125-3.338,5.719-5.01,10.782-5.01c4.654,0,7.864,1.267,9.627,3.794
	c1.808,2.481,2.711,6.975,2.711,13.475v36.839h15.324V888.73c0-9.311-1.854-16.022-5.562-20.138
	C608.546,863.757,602.558,861.339,594.874,861.339z"/>
<polygon style="fill:#C70000;" points="689.896,863.17 669.418,863.17 647.925,884.527 647.925,828.494 632.67,828.494 
	632.67,929.21 647.925,929.21 647.925,903.782 650.367,901.342 672.199,929.21 691.996,929.21 661.215,890.901 "/>
<path style="fill:#C70000;" d="M751.358,871.442c-6.872-6.736-15.233-10.104-25.086-10.104c-9.809,0-18.127,3.345-24.952,10.034
	c-6.826,6.69-10.236,14.805-10.236,24.341c0,10.128,3.342,18.533,10.032,25.224c6.69,6.78,14.984,10.17,24.884,10.17
	c9.989,0,18.418-3.324,25.289-9.968c6.826-6.689,10.238-14.983,10.238-24.883C761.527,886.449,758.138,878.178,751.358,871.442z
	 M740.578,911.716c-3.573,3.842-8.341,5.762-14.306,5.762c-5.923,0-10.691-1.941-14.307-5.829
	c-3.525-3.842-5.289-9.062-5.289-15.663c0-6.147,1.808-11.162,5.426-15.051c3.613-3.89,8.337-5.832,14.17-5.832
	c5.92,0,10.688,1.942,14.306,5.832c3.569,3.841,5.355,8.971,5.355,15.39S744.147,907.875,740.578,911.716z"/>
<polygon style="fill:#FFFFFF;" points="542,416.567 532.449,416.567 458.011,427.312 458.38,783.28 542.38,783.28 "/>
<polygon style="fill:#C70000;" points="405.795,828.487 391.752,828.487 385.206,835.679 385.266,835.758 403.724,835.758 
	387.077,838.16 398.774,853.67 412.34,835.679 "/>
<polygon style="fill:#FFFFFF;" points="722.561,152.538 722.561,166.237 729.039,236.536 759.2,236.536 759.2,152.538 "/>
<rect x="551.452" y="463.994" style="fill:#F8D4D4;" width="207.748" height="83.102"/>
<g>
	<polygon style="fill:#F8D4D4;" points="448.548,463.994 336.644,463.994 336.644,481.653 342.676,547.096 448.548,547.096 	"/>
</g>
</svg>
