<?xml version="1.0" encoding="iso-8859-1"?>
<!-- Generator: Adobe Illustrator 14.0.0, SVG Export Plug-In . SVG Version: 6.00 Build 43363)  -->
<!DOCTYPE svg PUBLIC "-//W3C//DTD SVG 1.1//EN" "http://www.w3.org/Graphics/SVG/1.1/DTD/svg11.dtd">
<svg version="1.1" id="Mark_5" xmlns="http://www.w3.org/2000/svg" xmlns:xlink="http://www.w3.org/1999/xlink" x="0px" y="0px"
	 width="1000px" height="1000px" viewBox="0 0 1000 1000" style="enable-background:new 0 0 1000 1000;" xml:space="preserve">
<rect x="241.001" y="92.001" style="fill:#C70000;" width="517.998" height="689.999"/>
<path style="fill:#C70000;" d="M373.869,872.955c-5.887-6.106-12.538-9.159-19.951-9.159c-8.591,0-15.743,3.184-21.456,9.55
	c-5.713,6.369-8.569,14.326-8.569,23.877c0,9.726,2.855,17.836,8.569,24.334c5.756,6.368,13.04,9.551,21.848,9.551
	c6.977,0,13.497-2.836,19.558-8.505v6.675h14.783v-63.715h-14.783V872.955z M369.749,912.333c-3.358,3.752-7.762,5.625-13.214,5.625
	c-5.102,0-9.332-1.938-12.69-5.821c-3.27-3.836-4.905-8.807-4.905-14.914c0-5.711,1.677-10.509,5.037-14.391
	c3.401-3.837,7.63-5.757,12.69-5.757c5.364,0,9.724,1.896,13.083,5.692c3.357,3.881,5.037,8.808,5.037,14.782
	C374.785,903.525,373.105,908.452,369.749,912.333z"/>
<rect x="404.279" y="865.562" style="fill:#C70000;" width="14.718" height="63.715"/>
<polygon style="fill:#C70000;" points="489.898,865.562 470.142,865.562 449.407,886.168 449.407,829.105 434.688,829.105 
	434.688,929.277 449.407,929.277 449.407,904.744 451.761,902.391 472.824,929.277 491.925,929.277 462.226,892.317 "/>
<path style="fill:#C70000;" d="M540.122,872.955c-5.887-6.106-12.537-9.159-19.952-9.159c-8.586,0-15.734,3.184-21.445,9.55
	c-5.713,6.369-8.569,14.326-8.569,23.877c0,9.726,2.856,17.836,8.569,24.334c5.755,6.368,13.035,9.551,21.838,9.551
	c6.978,0,13.497-2.836,19.56-8.505v6.675h14.782v-63.715h-14.782V872.955z M536,912.333c-3.359,3.752-7.763,5.625-13.213,5.625
	c-5.103,0-9.329-1.938-12.685-5.821c-3.269-3.836-4.903-8.807-4.903-14.914c0-5.711,1.677-10.509,5.036-14.391
	c3.396-3.837,7.625-5.757,12.682-5.757c5.366,0,9.724,1.896,13.083,5.692c3.359,3.881,5.038,8.808,5.038,14.782
	C541.038,903.525,539.359,908.452,536,912.333z"/>
<path style="fill:#C70000;" d="M601.856,863.796c-6.454,0-12.255,2.552-17.398,7.654v-5.888h-14.786v63.715h14.786v-30.708
	c0-7.928,1-13.479,3.008-16.661c2.05-3.22,5.517-4.833,10.401-4.833c4.491,0,7.588,1.222,9.288,3.66
	c1.744,2.395,2.616,6.729,2.616,13v35.542h14.784v-39.055c0-8.981-1.789-15.457-5.366-19.429
	C615.047,866.129,609.27,863.796,601.856,863.796z"/>
<polygon style="fill:#C70000;" points="694.533,865.562 674.776,865.562 654.04,886.168 654.04,829.105 639.322,829.105 
	639.322,929.277 654.04,929.277 654.04,904.744 656.396,902.391 677.46,929.277 696.56,929.277 666.862,892.317 "/>
<path style="fill:#C70000;" d="M752.829,873.544c-6.63-6.499-14.695-9.748-24.202-9.748c-9.463,0-17.488,3.228-24.072,9.681
	c-6.587,6.455-9.877,14.283-9.877,23.483c0,9.771,3.225,17.881,9.68,24.335c6.455,6.542,14.457,9.812,24.008,9.812
	c9.637,0,17.769-3.207,24.397-9.617c6.586-6.454,9.878-14.455,9.878-24.006C762.641,888.022,759.37,880.042,752.829,873.544z
	 M742.43,912.398c-3.448,3.707-8.048,5.56-13.803,5.56c-5.714,0-10.313-1.873-13.802-5.625c-3.401-3.706-5.103-8.743-5.103-15.11
	c0-5.931,1.743-10.77,5.233-14.521c3.486-3.753,8.044-5.627,13.671-5.627c5.711,0,10.312,1.874,13.803,5.627
	c3.443,3.705,5.167,8.654,5.167,14.848C747.597,903.742,745.873,908.693,742.43,912.398z"/>
<polygon style="fill:#C70000;" points="418.619,829.105 404.8,829.105 398.358,836.183 398.417,836.26 416.581,836.26 
	400.199,838.624 411.71,854.889 425.06,836.183 "/>
<g>
	<polygon style="fill:#FFFFFF;" points="440.592,415.287 532.658,415.287 458.22,426.032 458.22,782 542.209,782 542.209,415.287 
		560.588,415.287 560.588,390.086 440.591,390.086 	"/>
	<path style="fill:#FFFFFF;" d="M662.775,151.256c-112.592,0-204.186,91.594-204.186,204.178h-17.999v25.2h119.997v-25.2H542.59
		c0-66.266,53.913-120.178,120.186-120.178v17.996h25.198V133.259h-25.198V151.256z"/>
	<polygon style="fill:#FFFFFF;" points="722.771,151.258 722.771,133.259 697.573,133.259 697.573,253.252 722.771,253.252 
		722.771,164.978 729.248,235.256 759.409,235.256 759.409,151.258 	"/>
</g>
<rect x="552.4" y="463.994" style="fill:#F8D4D4;" width="206.6" height="83.102"/>
<g>
	<polygon style="fill:#F8D4D4;" points="278.09,445.811 278.09,463.994 241.452,463.997 241.452,547.096 278.09,547.096 
		278.09,565.279 303.017,565.279 303.017,445.811 	"/>
	<polygon style="fill:#F8D4D4;" points="338.095,463.994 338.095,445.811 313.167,445.811 313.167,565.279 338.095,565.279 
		338.095,481.636 338.096,481.653 344.128,547.096 447.925,547.096 447.925,463.994 	"/>
</g>
<g>
	<path style="fill:#C70000;" d="M255.198,870.911h43.44v-41.806h15.197v100.107h-15.197v-44.017h-43.44v44.017H240V829.105h15.198
		V870.911z"/>
</g>
</svg>
